<?xml version="1.0" ?><!-- Uploaded to: SVG Repo, www.svgrepo.com, Generator: SVG Repo Mixer Tools -->
<svg fill="#000000" width="800px" height="800px" viewBox="-16 0 151 151" xmlns="http://www.w3.org/2000/svg"><path d="     M 110.750761210918,71.4056369066238     C 110.750761210918,71.4056369066238 110.750761210918,149.488840401173 110.750761210918,149.488840401173     C 110.750761210918,149.488840401173 7.81268882751465,149.488840401173 7.81268882751465,149.488840401173     C 7.81268882751465,149.488840401173 7.81268882751465,71.4056369066238 7.81268882751465,71.4056369066238     C 7.81268882751465,71.4056369066238 1.95576822757721,71.4056369066238 1.95576822757721,71.4056369066238     C 1.95576822757721,71.4056369066238 16.3512704372406,28.198241174221 16.3512704372406,28.198241174221     C 16.3512704372406,28.198241174221 29.5471486449242,28.198241174221 29.5471486449242,28.198241174221     C 29.5471486449242,28.198241174221 29.5471486449242,10.595253765583 29.5471486449242,10.595253765583     C 29.5471486449242,10.595253765583 41.5434170365334,10.595253765583 41.5434170365334,10.595253765583     C 41.5434170365334,10.595253765583 41.5434170365334,28.198241174221 41.5434170365334,28.198241174221     C 41.5434170365334,28.198241174221 99.1253265738487,28.198241174221 99.1253265738487,28.198241174221     C 99.1253265738487,28.198241174221 117.119679510593,71.4056369066238 117.119679510593,71.4056369066238     C 117.119679510593,71.4056369066238 110.750761210918,71.4056369066238 110.750761210918,71.4056369066238     Z     M 68.8861043453217,110.828657925129     C 68.8861043453217,110.828657925129 68.8861043453217,99.5594795942307 68.8861043453217,99.5594795942307     C 68.8861043453217,96.1311478018761 65.9302581548691,93.2488462924957 61.9211935997009,92.4117282629013     C 61.9211935997009,92.4117282629013 61.9211935997009,110.828657925129 61.9211935997009,110.828657925129     C 61.9211935997009,110.828657925129 68.8861043453217,110.828657925129 68.8861043453217,110.828657925129     Z     M 57.9619641304016,110.828657925129     C 57.9619641304016,110.828657925129 57.9619641304016,92.2693344950676 57.9619641304016,92.2693344950676     C 53.5319186449051,92.8555601239204 50.1552759408951,95.8953849077225 50.1552759408951,99.5594795942307     C 50.1552759408951,99.5594795942307 50.1552759408951,110.828657925129 50.1552759408951,110.828657925129     C 50.1552759408951,110.828657925129 57.9619641304016,110.828657925129 57.9619641304016,110.828657925129     Z     M 12.1512352228165,145.202437877655     C 12.1512352228165,145.202437877655 46.140806555748,145.202437877655 46.140806555748,145.202437877655     C 46.140806555748,145.202437877655 46.140806555748,97.3348031044006 46.140806555748,97.3348031044006     C 46.140806555748,91.5010597705841 52.1309257149696,86.7719414234161 59.5200234055519,86.7719414234161     C 66.9092133045197,86.7719414234161 72.8992047905922,91.5010597705841 72.8992047905922,97.3348031044006     C 72.8992047905922,97.3348031044006 72.8992047905922,145.202437877655 72.8992047905922,145.202437877655     C 72.8992047905922,145.202437877655 106.412179350853,145.202437877655 106.412179350853,145.202437877655     C 106.412179350853,145.202437877655 106.412179350853,71.4056369066238 106.412179350853,71.4056369066238     C 106.412179350853,71.4056369066238 12.1512352228165,71.4056369066238 12.1512352228165,71.4056369066238     C 12.1512352228165,71.4056369066238 12.1512352228165,145.202437877655 12.1512352228165,145.202437877655     Z     M 77.5115959048271,133.601022422314     C 77.5115959048271,133.601022422314 77.5115959048271,109.174438536167 77.5115959048271,109.174438536167     C 77.5115959048271,109.174438536167 101.266618072987,109.174438536167 101.266618072987,109.174438536167     C 101.266618072987,109.174438536167 101.266618072987,133.601022422314 101.266618072987,133.601022422314     C 101.266618072987,133.601022422314 77.5115959048271,133.601022422314 77.5115959048271,133.601022422314     Z     M 87.7385627031326,112.120651185513     C 87.7385627031326,112.120651185513 79.9793972969055,112.120651185513 79.9793972969055,112.120651185513     C 79.9793972969055,112.120651185513 79.9793972969055,119.883618116379 79.9793972969055,119.883618116379     C 79.9793972969055,119.883618116379 87.7385627031326,119.883618116379 87.7385627031326,119.883618116379     C 87.7385627031326,119.883618116379 87.7385627031326,112.120651185513 87.7385627031326,112.120651185513     Z     M 87.7385627031326,123.144688308239     C 87.7385627031326,123.144688308239 79.9793972969055,123.144688308239 79.9793972969055,123.144688308239     C 79.9793972969055,123.144688308239 79.9793972969055,130.907655239105 79.9793972969055,130.907655239105     C 79.9793972969055,130.907655239105 87.7385627031326,130.907655239105 87.7385627031326,130.907655239105     C 87.7385627031326,130.907655239105 87.7385627031326,123.144688308239 87.7385627031326,123.144688308239     Z     M 98.7572874426842,112.120651185513     C 98.7572874426842,112.120651185513 90.9980794787407,112.120651185513 90.9980794787407,112.120651185513     C 90.9980794787407,112.120651185513 90.9980794787407,119.883618116379 90.9980794787407,119.883618116379     C 90.9980794787407,119.883618116379 98.7572874426842,119.883618116379 98.7572874426842,119.883618116379     C 98.7572874426842,119.883618116379 98.7572874426842,112.120651185513 98.7572874426842,112.120651185513     Z     M 98.7572874426842,123.144688308239     C 98.7572874426842,123.144688308239 90.9980794787407,123.144688308239 90.9980794787407,123.144688308239     C 90.9980794787407,123.144688308239 90.9980794787407,130.907655239105 90.9980794787407,130.907655239105     C 90.9980794787407,130.907655239105 98.7572874426842,130.907655239105 98.7572874426842,130.907655239105     C 98.7572874426842,130.907655239105 98.7572874426842,123.144688308239 98.7572874426842,123.144688308239     Z     M 77.5115959048271,76.7689254879951     C 77.5115959048271,76.7689254879951 101.266618072987,76.7689254879951 101.266618072987,76.7689254879951     C 101.266618072987,76.7689254879951 101.266618072987,101.195509374142 101.266618072987,101.195509374142     C 101.266618072987,101.195509374142 77.5115959048271,101.195509374142 77.5115959048271,101.195509374142     C 77.5115959048271,101.195509374142 77.5115959048271,76.7689254879951 77.5115959048271,76.7689254879951     Z     M 90.9980794787407,98.5020881891251     C 90.9980794787407,98.5020881891251 98.7572874426842,98.5020881891251 98.7572874426842,98.5020881891251     C 98.7572874426842,98.5020881891251 98.7572874426842,90.7391662597656 98.7572874426842,90.7391662597656     C 98.7572874426842,90.7391662597656 90.9980794787407,90.7391662597656 90.9980794787407,90.7391662597656     C 90.9980794787407,90.7391662597656 90.9980794787407,98.5020881891251 90.9980794787407,98.5020881891251     Z     M 90.9980794787407,87.4780600667     C 90.9980794787407,87.4780600667 98.7572874426842,87.4780600667 98.7572874426842,87.4780600667     C 98.7572874426842,87.4780600667 98.7572874426842,79.7151381373405 98.7572874426842,79.7151381373405     C 98.7572874426842,79.7151381373405 90.9980794787407,79.7151381373405 90.9980794787407,79.7151381373405     C 90.9980794787407,79.7151381373405 90.9980794787407,87.4780600667 90.9980794787407,87.4780600667     Z     M 79.9793972969055,98.5020881891251     C 79.9793972969055,98.5020881891251 87.7385627031326,98.5020881891251 87.7385627031326,98.5020881891251     C 87.7385627031326,98.5020881891251 87.7385627031326,90.7391662597656 87.7385627031326,90.7391662597656     C 87.7385627031326,90.7391662597656 79.9793972969055,90.7391662597656 79.9793972969055,90.7391662597656     C 79.9793972969055,90.7391662597656 79.9793972969055,98.5020881891251 79.9793972969055,98.5020881891251     Z     M 79.9793972969055,87.4780600667     C 79.9793972969055,87.4780600667 87.7385627031326,87.4780600667 87.7385627031326,87.4780600667     C 87.7385627031326,87.4780600667 87.7385627031326,79.7151381373405 87.7385627031326,79.7151381373405     C 87.7385627031326,79.7151381373405 79.9793972969055,79.7151381373405 79.9793972969055,79.7151381373405     C 79.9793972969055,79.7151381373405 79.9793972969055,87.4780600667 79.9793972969055,87.4780600667     Z     M 18.1903383135796,109.174438536167     C 18.1903383135796,109.174438536167 41.9452753663063,109.174438536167 41.9452753663063,109.174438536167     C 41.9452753663063,109.174438536167 41.9452753663063,133.601022422314 41.9452753663063,133.601022422314     C 41.9452753663063,133.601022422314 18.1903383135796,133.601022422314 18.1903383135796,133.601022422314     C 18.1903383135796,133.601022422314 18.1903383135796,109.174438536167 18.1903383135796,109.174438536167     Z     M 31.6767367720604,130.907655239105     C 31.6767367720604,130.907655239105 39.4358950853348,130.907655239105 39.4358950853348,130.907655239105     C 39.4358950853348,130.907655239105 39.4358950853348,123.144688308239 39.4358950853348,123.144688308239     C 39.4358950853348,123.144688308239 31.6767367720604,123.144688308239 31.6767367720604,123.144688308239     C 31.6767367720604,123.144688308239 31.6767367720604,130.907655239105 31.6767367720604,130.907655239105     Z     M 31.6767367720604,119.883618116379     C 31.6767367720604,119.883618116379 39.4358950853348,119.883618116379 39.4358950853348,119.883618116379     C 39.4358950853348,119.883618116379 39.4358950853348,112.120651185513 39.4358950853348,112.120651185513     C 39.4358950853348,112.120651185513 31.6767367720604,112.120651185513 31.6767367720604,112.120651185513     C 31.6767367720604,112.120651185513 31.6767367720604,119.883618116379 31.6767367720604,119.883618116379     Z     M 20.6580545902252,130.907655239105     C 20.6580545902252,130.907655239105 28.4172129034996,130.907655239105 28.4172129034996,130.907655239105     C 28.4172129034996,130.907655239105 28.4172129034996,123.144688308239 28.4172129034996,123.144688308239     C 28.4172129034996,123.144688308239 20.6580545902252,123.144688308239 20.6580545902252,123.144688308239     C 20.6580545902252,123.144688308239 20.6580545902252,130.907655239105 20.6580545902252,130.907655239105     Z     M 20.6580545902252,119.883618116379     C 20.6580545902252,119.883618116379 28.4172129034996,119.883618116379 28.4172129034996,119.883618116379     C 28.4172129034996,119.883618116379 28.4172129034996,112.120651185513 28.4172129034996,112.120651185513     C 28.4172129034996,112.120651185513 20.6580545902252,112.120651185513 20.6580545902252,112.120651185513     C 20.6580545902252,112.120651185513 20.6580545902252,119.883618116379 20.6580545902252,119.883618116379     Z     M 18.1903383135796,76.7689254879951     C 18.1903383135796,76.7689254879951 41.9452753663063,76.7689254879951 41.9452753663063,76.7689254879951     C 41.9452753663063,76.7689254879951 41.9452753663063,101.195509374142 41.9452753663063,101.195509374142     C 41.9452753663063,101.195509374142 18.1903383135796,101.195509374142 18.1903383135796,101.195509374142     C 18.1903383135796,101.195509374142 18.1903383135796,76.7689254879951 18.1903383135796,76.7689254879951     Z     M 31.6767367720604,98.5020881891251     C 31.6767367720604,98.5020881891251 39.4358950853348,98.5020881891251 39.4358950853348,98.5020881891251     C 39.4358950853348,98.5020881891251 39.4358950853348,90.7391662597656 39.4358950853348,90.7391662597656     C 39.4358950853348,90.7391662597656 31.6767367720604,90.7391662597656 31.6767367720604,90.7391662597656     C 31.6767367720604,90.7391662597656 31.6767367720604,98.5020881891251 31.6767367720604,98.5020881891251     Z     M 31.6767367720604,87.4780600667     C 31.6767367720604,87.4780600667 39.4358950853348,87.4780600667 39.4358950853348,87.4780600667     C 39.4358950853348,87.4780600667 39.4358950853348,79.7151381373405 39.4358950853348,79.7151381373405     C 39.4358950853348,79.7151381373405 31.6767367720604,79.7151381373405 31.6767367720604,79.7151381373405     C 31.6767367720604,79.7151381373405 31.6767367720604,87.4780600667 31.6767367720604,87.4780600667     Z     M 20.6580545902252,98.5020881891251     C 20.6580545902252,98.5020881891251 28.4172129034996,98.5020881891251 28.4172129034996,98.5020881891251     C 28.4172129034996,98.5020881891251 28.4172129034996,90.7391662597656 28.4172129034996,90.7391662597656     C 28.4172129034996,90.7391662597656 20.6580545902252,90.7391662597656 20.6580545902252,90.7391662597656     C 20.6580545902252,90.7391662597656 20.6580545902252,98.5020881891251 20.6580545902252,98.5020881891251     Z     M 20.6580545902252,87.4780600667     C 20.6580545902252,87.4780600667 28.4172129034996,87.4780600667 28.4172129034996,87.4780600667     C 28.4172129034996,87.4780600667 28.4172129034996,79.7151381373405 28.4172129034996,79.7151381373405     C 28.4172129034996,79.7151381373405 20.6580545902252,79.7151381373405 20.6580545902252,79.7151381373405     C 20.6580545902252,79.7151381373405 20.6580545902252,87.4780600667 20.6580545902252,87.4780600667     Z     M 28.3475742936134,1.79378706216812     C 28.3475742936134,1.79378706216812 43.5428069233894,1.79378706216812 43.5428069233894,1.79378706216812     C 43.5428069233894,1.79378706216812 43.5428069233894,8.19487339258194 43.5428069233894,8.19487339258194     C 43.5428069233894,8.19487339258194 28.3475742936134,8.19487339258194 28.3475742936134,8.19487339258194     C 28.3475742936134,8.19487339258194 28.3475742936134,1.79378706216812 28.3475742936134,1.79378706216812     Z " fill-rule="nonzero" id="house-shape-PhotoshopSupply.com"/></svg>